<svg viewBox="0 0 114 22" fill="none" xmlns="http://www.w3.org/2000/svg">
    <g clip-path="url(#clip0_1532_14660)">
        <path d="M14.4239 4.00717C14.7088 3.72525 15.0311 3.50275 15.3749 3.33966C15.4085 3.32302 15.4422 3.30732 15.4761 3.29251C16.3678 2.9025 17.3844 2.9025 18.2761 3.29251C18.3533 3.32628 18.4295 3.36469 18.5062 3.4083C18.7988 3.56335 19.0736 3.76297 19.3205 4.00717C19.3716 4.05781 19.4209 4.10965 19.4682 4.16258C19.7497 4.42408 20.075 4.74598 20.475 5.14174L20.573 5.23862C20.9303 5.59209 21.1089 5.76884 21.196 5.9638C21.3274 6.25787 21.3274 6.59312 21.196 6.88719C21.1089 7.08216 20.9303 7.2589 20.573 7.61237L18.0757 10.083C17.7185 10.4365 17.5398 10.6132 17.3427 10.6994C17.0455 10.8294 16.7066 10.8294 16.4094 10.6994C16.2123 10.6132 16.0337 10.4365 15.6764 10.083L14.5672 8.98566C14.5185 8.94256 14.4707 8.89786 14.4239 8.85155C14.3771 8.80525 14.3319 8.75795 14.2883 8.70972L13.1792 7.61237C12.8219 7.2589 12.6432 7.08216 12.5561 6.88719C12.4247 6.59312 12.4247 6.25787 12.5561 5.9638C12.6432 5.76884 12.8219 5.5921 13.1792 5.23862L13.2771 5.14173C13.6566 4.76624 13.969 4.45718 14.2404 4.20316C14.2985 4.13608 14.3597 4.07069 14.4239 4.00717Z" fill="#38AECC"/>
        <path d="M10.071 8.31256C10.5217 7.86664 11.2525 7.86664 11.7032 8.31256L14.9676 11.5421C15.4183 11.9881 15.4183 12.711 14.9676 13.1569L10.0708 18.0015C8.71869 19.3392 6.52642 19.3392 5.17427 18.0015C3.82212 16.6638 3.82212 14.4949 5.17427 13.1571L10.071 8.31256Z" fill="#815BC8"/>
        <path d="M32.9258 4.0033C34.2779 2.66557 36.4702 2.66557 37.8223 4.0033C39.1745 5.34104 39.1745 7.50995 37.8223 8.84769L28.5774 17.9942C27.9013 18.663 27.0111 19.0015 26.125 19.0015C25.7111 19.0015 25.2973 18.9286 24.9049 18.7827C24.5095 18.6357 24.1359 18.4147 23.8059 18.1197C23.762 18.0805 23.719 18.04 23.6767 17.9982L18.7801 13.1538C18.3294 12.7079 18.3294 11.9849 18.7801 11.539L22.0445 8.30942C22.4952 7.8635 23.226 7.8635 23.6767 8.30942L25.3089 9.92421C25.7596 10.3701 26.4904 10.3701 26.9411 9.92421L32.9258 4.0033Z" fill="#815BC8"/>
    </g>
    <path d="M53.5812 4.6862V18.3718H50.8362V4.6862H53.5812Z" fill="#815BC8"/>
    <path d="M62.3125 7.35274C63.6066 7.35274 64.6523 7.76448 65.4496 8.58798C66.247 9.39839 66.6456 10.5356 66.6456 11.9996V18.3718H63.9007V12.3721C63.9007 11.5094 63.685 10.8493 63.2536 10.3918C62.8223 9.92125 62.2341 9.68596 61.489 9.68596C60.7309 9.68596 60.1296 9.92125 59.6852 10.3918C59.2538 10.8493 59.0382 11.5094 59.0382 12.3721V18.3718H56.2932V7.50959H59.0382V8.86247C59.4042 8.39191 59.8682 8.02591 60.4302 7.76448C61.0054 7.48999 61.6328 7.35274 62.3125 7.35274Z" fill="#815BC8"/>
    <path d="M73.7852 15.8425L76.5301 7.50959H79.4516L75.4322 18.3718H72.099L68.0992 7.50959H71.0402L73.7852 15.8425Z" fill="#815BC8"/>
    <path d="M82.3854 6.21554C81.9018 6.21554 81.4966 6.06522 81.1698 5.76458C80.8561 5.45087 80.6992 5.06526 80.6992 4.60777C80.6992 4.15027 80.8561 3.77121 81.1698 3.47057C81.4966 3.15686 81.9018 3 82.3854 3C82.869 3 83.2677 3.15686 83.5814 3.47057C83.9082 3.77121 84.0716 4.15027 84.0716 4.60777C84.0716 5.06526 83.9082 5.45087 83.5814 5.76458C83.2677 6.06522 82.869 6.21554 82.3854 6.21554ZM83.7383 7.50959V18.3718H80.9933V7.50959H83.7383Z" fill="#815BC8"/>
    <path d="M89.1953 9.09775C89.5482 8.5749 90.0319 8.15009 90.6462 7.8233C91.2736 7.49652 91.986 7.33313 92.7834 7.33313C93.7114 7.33313 94.548 7.56188 95.293 8.01937C96.0512 8.47687 96.6459 9.13043 97.0773 9.98007C97.5217 10.8166 97.7439 11.7904 97.7439 12.9015C97.7439 14.0126 97.5217 14.9994 97.0773 15.8621C96.6459 16.7118 96.0512 17.3719 95.293 17.8424C94.548 18.313 93.7114 18.5483 92.7834 18.5483C91.9729 18.5483 91.2606 18.3914 90.6462 18.0777C90.0449 17.7509 89.5613 17.3327 89.1953 16.8229V18.3718H86.4503V3.86271H89.1953V9.09775ZM94.9401 12.9015C94.9401 12.2479 94.8029 11.6859 94.5284 11.2153C94.267 10.7317 93.914 10.3657 93.4696 10.1173C93.0383 9.86896 92.5677 9.74478 92.0579 9.74478C91.5612 9.74478 91.0906 9.8755 90.6462 10.1369C90.2149 10.3853 89.8619 10.7513 89.5874 11.2349C89.326 11.7185 89.1953 12.2871 89.1953 12.9407C89.1953 13.5943 89.326 14.1629 89.5874 14.6465C89.8619 15.1302 90.2149 15.5027 90.6462 15.7641C91.0906 16.0125 91.5612 16.1366 92.0579 16.1366C92.5677 16.1366 93.0383 16.0059 93.4696 15.7445C93.914 15.4831 94.267 15.1105 94.5284 14.6269C94.8029 14.1433 94.9401 13.5681 94.9401 12.9015Z" fill="#815BC8"/>
    <path d="M109.836 12.7054C109.836 13.0976 109.81 13.4505 109.758 13.7642H101.817C101.882 14.5485 102.157 15.1628 102.64 15.6073C103.124 16.0517 103.719 16.2739 104.425 16.2739C105.444 16.2739 106.17 15.836 106.601 14.9602H109.562C109.248 16.0059 108.647 16.8686 107.758 17.5483C106.869 18.215 105.778 18.5483 104.483 18.5483C103.438 18.5483 102.497 18.3195 101.66 17.8621C100.837 17.3915 100.19 16.7314 99.719 15.8818C99.2615 15.0321 99.0328 14.0518 99.0328 12.9407C99.0328 11.8166 99.2615 10.8297 99.719 9.98007C100.176 9.13043 100.817 8.47687 101.64 8.01937C102.464 7.56188 103.412 7.33313 104.483 7.33313C105.516 7.33313 106.438 7.55534 107.248 7.99977C108.072 8.44419 108.706 9.07815 109.15 9.90164C109.607 10.7121 109.836 11.6467 109.836 12.7054ZM106.993 11.9212C106.98 11.2153 106.725 10.6532 106.229 10.235C105.732 9.8036 105.124 9.58793 104.405 9.58793C103.725 9.58793 103.15 9.79707 102.68 10.2153C102.222 10.6206 101.941 11.1892 101.837 11.9212H106.993Z" fill="#815BC8"/>
    <defs>
        <clipPath id="clip0_1532_14660">
            <rect width="34.6764" height="16.0049" fill="white" transform="translate(4.15991 3)"/>
        </clipPath>
    </defs>
</svg>
