<svg viewBox="0 0 24 24" fill="none" xmlns="http://www.w3.org/2000/svg">
    <mask id="path-1-inside-1_3247_5951" fill="white">
        <path fill-rule="evenodd" clip-rule="evenodd" d="M15.8278 21.2412C14.6143 21.7438 13.3135 22.0017 12 22C10.6865 22.0017 9.3857 21.7438 8.17222 21.2411C6.95875 20.7385 5.85656 20.001 4.92901 19.071C3.99902 18.1435 3.26151 17.0413 2.75885 15.8278C2.25619 14.6143 1.99831 13.3135 2.00001 12C1.99833 10.6865 2.25623 9.3857 2.75889 8.17222C3.26154 6.95875 3.99904 5.85656 4.92901 4.92901C5.85656 3.99904 6.95875 3.26154 8.17222 2.75889C9.3857 2.25623 10.6865 1.99833 12 2.00001C13.3135 1.99831 14.6143 2.25619 15.8278 2.75885C17.0413 3.26151 18.1435 3.99902 19.071 4.92901C20.001 5.85656 20.7385 6.95875 21.2411 8.17222C21.7438 9.3857 22.0017 10.6865 22 12C22.0017 13.3135 21.7438 14.6143 21.2412 15.8278C20.7385 17.0413 20.001 18.1435 19.071 19.071C18.1435 20.001 17.0413 20.7385 15.8278 21.2412ZM11 6.5C11 5.94772 11.4477 5.5 12 5.5C12.5523 5.5 13 5.94772 13 6.5V12.5C13 13.0523 12.5523 13.5 12 13.5C11.4477 13.5 11 13.0523 11 12.5V6.5ZM12 18.5C12.3315 18.5 12.6495 18.3683 12.8839 18.1339C13.1183 17.8995 13.25 17.5815 13.25 17.25C13.25 16.9185 13.1183 16.6005 12.8839 16.3661C12.6495 16.1317 12.3315 16 12 16C11.6685 16 11.3505 16.1317 11.1161 16.3661C10.8817 16.6005 10.75 16.9185 10.75 17.25C10.75 17.5815 10.8817 17.8995 11.1161 18.1339C11.3505 18.3683 11.6685 18.5 12 18.5Z"/>
    </mask>
    <path fill-rule="evenodd" clip-rule="evenodd" d="M15.8278 21.2412C14.6143 21.7438 13.3135 22.0017 12 22C10.6865 22.0017 9.3857 21.7438 8.17222 21.2411C6.95875 20.7385 5.85656 20.001 4.92901 19.071C3.99902 18.1435 3.26151 17.0413 2.75885 15.8278C2.25619 14.6143 1.99831 13.3135 2.00001 12C1.99833 10.6865 2.25623 9.3857 2.75889 8.17222C3.26154 6.95875 3.99904 5.85656 4.92901 4.92901C5.85656 3.99904 6.95875 3.26154 8.17222 2.75889C9.3857 2.25623 10.6865 1.99833 12 2.00001C13.3135 1.99831 14.6143 2.25619 15.8278 2.75885C17.0413 3.26151 18.1435 3.99902 19.071 4.92901C20.001 5.85656 20.7385 6.95875 21.2411 8.17222C21.7438 9.3857 22.0017 10.6865 22 12C22.0017 13.3135 21.7438 14.6143 21.2412 15.8278C20.7385 17.0413 20.001 18.1435 19.071 19.071C18.1435 20.001 17.0413 20.7385 15.8278 21.2412ZM11 6.5C11 5.94772 11.4477 5.5 12 5.5C12.5523 5.5 13 5.94772 13 6.5V12.5C13 13.0523 12.5523 13.5 12 13.5C11.4477 13.5 11 13.0523 11 12.5V6.5ZM12 18.5C12.3315 18.5 12.6495 18.3683 12.8839 18.1339C13.1183 17.8995 13.25 17.5815 13.25 17.25C13.25 16.9185 13.1183 16.6005 12.8839 16.3661C12.6495 16.1317 12.3315 16 12 16C11.6685 16 11.3505 16.1317 11.1161 16.3661C10.8817 16.6005 10.75 16.9185 10.75 17.25C10.75 17.5815 10.8817 17.8995 11.1161 18.1339C11.3505 18.3683 11.6685 18.5 12 18.5Z" fill="#F04D62"/>
    <path d="M12 22L12.0016 20.8L11.9985 20.8L12 22ZM15.8278 21.2412L15.3686 20.1325L15.8278 21.2412ZM4.92901 19.071L5.77864 18.2236L5.77642 18.2214L4.92901 19.071ZM2.75885 15.8278L3.8675 15.3686H3.8675L2.75885 15.8278ZM2.00001 12L3.20001 12.0016L3.20001 11.9985L2.00001 12ZM2.75889 8.17222L1.65024 7.71299L1.65024 7.71299L2.75889 8.17222ZM4.92901 4.92901L5.77644 5.77864L5.77864 5.77643L4.92901 4.92901ZM8.17222 2.75889L7.71299 1.65024L7.71299 1.65024L8.17222 2.75889ZM12 2.00001L11.9985 3.20001L12.0016 3.20001L12 2.00001ZM15.8278 2.75885L15.3686 3.8675V3.8675L15.8278 2.75885ZM19.071 4.92901L18.2214 5.77642L18.2236 5.77864L19.071 4.92901ZM22 12L20.8 11.9985L20.8 12.0016L22 12ZM21.2412 15.8278L20.1325 15.3686L21.2412 15.8278ZM19.071 19.071L18.2236 18.2214L18.2214 18.2236L19.071 19.071ZM11.9985 23.2C13.47 23.2019 14.9275 22.913 16.287 22.3498L15.3686 20.1325C14.3012 20.5747 13.1569 20.8015 12.0016 20.8L11.9985 23.2ZM7.71299 22.3498C9.07254 22.9129 10.53 23.2019 12.0015 23.2L11.9985 20.8C10.8431 20.8015 9.69886 20.5746 8.63145 20.1325L7.71299 22.3498ZM4.07938 19.9184C5.11858 20.9603 6.35344 21.7866 7.71299 22.3498L8.63145 20.1325C7.56405 19.6903 6.59454 19.0416 5.77864 18.2236L4.07938 19.9184ZM1.6502 16.287C2.21337 17.6466 3.03966 18.8815 4.0816 19.9207L5.77642 18.2214C4.95838 17.4055 4.30965 16.436 3.8675 15.3686L1.6502 16.287ZM0.800009 11.9985C0.798103 13.47 1.08703 14.9275 1.6502 16.287L3.8675 15.3686C3.42535 14.3012 3.19851 13.1569 3.20001 12.0016L0.800009 11.9985ZM1.65024 7.71299C1.08708 9.07254 0.798133 10.53 0.800009 12.0015L3.20001 11.9985C3.19853 10.8431 3.42539 9.69886 3.86754 8.63145L1.65024 7.71299ZM4.08158 4.07938C3.03968 5.11859 2.2134 6.35344 1.65024 7.71299L3.86754 8.63145C4.30969 7.56405 4.95841 6.59454 5.77643 5.77864L4.08158 4.07938ZM7.71299 1.65024C6.35344 2.2134 5.11859 3.03968 4.07938 4.08158L5.77864 5.77643C6.59454 4.95841 7.56405 4.30969 8.63145 3.86754L7.71299 1.65024ZM12.0015 0.800009C10.53 0.798133 9.07254 1.08708 7.71299 1.65024L8.63145 3.86754C9.69886 3.42539 10.8431 3.19853 11.9985 3.20001L12.0015 0.800009ZM16.287 1.6502C14.9275 1.08703 13.47 0.798103 11.9985 0.800009L12.0016 3.20001C13.1569 3.19851 14.3012 3.42535 15.3686 3.8675L16.287 1.6502ZM19.9207 4.0816C18.8815 3.03966 17.6466 2.21337 16.287 1.6502L15.3686 3.8675C16.436 4.30965 17.4055 4.95838 18.2214 5.77642L19.9207 4.0816ZM22.3498 7.71299C21.7866 6.35344 20.9603 5.11858 19.9184 4.07938L18.2236 5.77864C19.0416 6.59454 19.6903 7.56405 20.1325 8.63145L22.3498 7.71299ZM23.2 12.0015C23.2019 10.53 22.9129 9.07254 22.3498 7.71299L20.1325 8.63145C20.5746 9.69886 20.8015 10.8431 20.8 11.9985L23.2 12.0015ZM22.3498 16.287C22.913 14.9275 23.2019 13.47 23.2 11.9985L20.8 12.0016C20.8015 13.1569 20.5747 14.3012 20.1325 15.3686L22.3498 16.287ZM19.9184 19.9207C20.9604 18.8815 21.7866 17.6466 22.3498 16.287L20.1325 15.3686C19.6904 16.436 19.0416 17.4055 18.2236 18.2214L19.9184 19.9207ZM16.287 22.3498C17.6466 21.7866 18.8815 20.9604 19.9207 19.9184L18.2214 18.2236C17.4055 19.0416 16.436 19.6904 15.3686 20.1325L16.287 22.3498ZM12 4.3C10.785 4.3 9.8 5.28497 9.8 6.5H12.2C12.2 6.61046 12.1105 6.7 12 6.7V4.3ZM14.2 6.5C14.2 5.28497 13.215 4.3 12 4.3V6.7C11.8895 6.7 11.8 6.61046 11.8 6.5H14.2ZM14.2 12.5V6.5H11.8V12.5H14.2ZM12 14.7C13.215 14.7 14.2 13.715 14.2 12.5H11.8C11.8 12.3895 11.8895 12.3 12 12.3V14.7ZM9.8 12.5C9.8 13.715 10.785 14.7 12 14.7V12.3C12.1105 12.3 12.2 12.3895 12.2 12.5H9.8ZM9.8 6.5V12.5H12.2V6.5H9.8ZM12.0354 17.2854C12.026 17.2947 12.0133 17.3 12 17.3V19.7C12.6498 19.7 13.2729 19.4419 13.7324 18.9824L12.0354 17.2854ZM12.05 17.25C12.05 17.2633 12.0447 17.276 12.0354 17.2854L13.7324 18.9824C14.1919 18.5229 14.45 17.8998 14.45 17.25H12.05ZM12.0354 17.2146C12.0447 17.224 12.05 17.2367 12.05 17.25H14.45C14.45 16.6002 14.1919 15.9771 13.7324 15.5176L12.0354 17.2146ZM12 17.2C12.0133 17.2 12.026 17.2053 12.0354 17.2146L13.7324 15.5176C13.2729 15.0581 12.6498 14.8 12 14.8V17.2ZM11.9646 17.2146C11.974 17.2053 11.9867 17.2 12 17.2V14.8C11.3502 14.8 10.7271 15.0581 10.2676 15.5176L11.9646 17.2146ZM11.95 17.25C11.95 17.2367 11.9553 17.224 11.9646 17.2146L10.2676 15.5176C9.80812 15.9771 9.55 16.6002 9.55 17.25H11.95ZM11.9646 17.2854C11.9553 17.276 11.95 17.2633 11.95 17.25H9.55C9.55 17.8998 9.80812 18.5229 10.2676 18.9824L11.9646 17.2854ZM12 17.3C11.9867 17.3 11.974 17.2947 11.9646 17.2854L10.2676 18.9824C10.7271 19.4419 11.3502 19.7 12 19.7V17.3Z" fill="#F04D62" mask="url(#path-1-inside-1_3247_5951)"/>
</svg>
