<svg viewBox="0 0 237 38" fill="none" xmlns="http://www.w3.org/2000/svg">
    <g clip-path="url(#clip0_747_852)">
        <path d="M25.0521 6.91934C25.547 6.4324 26.1067 6.04808 26.7039 5.76637C26.7623 5.73763 26.8207 5.71052 26.8795 5.68494C28.4283 5.01127 30.1939 5.01127 31.7427 5.68494C31.8768 5.74327 32.0093 5.8096 32.1424 5.88494C32.6506 6.15274 33.1279 6.49754 33.5566 6.91934C33.6455 7.00682 33.7311 7.09635 33.8132 7.18778C34.3021 7.63946 34.8672 8.19548 35.562 8.87905L35.7321 9.0464C36.3526 9.65693 36.6629 9.96222 36.8142 10.299C37.0424 10.8069 37.0424 11.386 36.8142 11.8939C36.6629 12.2307 36.3526 12.536 35.7321 13.1465L31.3947 17.414C30.7742 18.0245 30.4639 18.3298 30.1216 18.4787C29.6054 18.7032 29.0168 18.7032 28.5006 18.4787C28.1583 18.3298 27.8481 18.0245 27.2275 17.414L25.3011 15.5186C25.2164 15.4441 25.1333 15.3669 25.0521 15.2869C24.9708 15.2069 24.8923 15.1252 24.8166 15.0419L22.8902 13.1465C22.2696 12.536 21.9594 12.2307 21.808 11.8939C21.5798 11.386 21.5798 10.8069 21.808 10.299C21.9594 9.96222 22.2696 9.65695 22.8902 9.0464L23.0603 8.87905C23.7195 8.23046 24.262 7.69663 24.7334 7.25788C24.8343 7.142 24.9406 7.02905 25.0521 6.91934Z" fill="#38AECC"/>
        <path d="M17.4918 14.3559C18.2746 13.5857 19.5438 13.5857 20.3267 14.3559L25.9964 19.9343C26.7792 20.7045 26.7792 21.9533 25.9964 22.7235L17.4915 31.0914C15.143 33.402 11.3354 33.402 8.98694 31.0914C6.63847 28.7807 6.63847 25.0344 8.98694 22.7238L17.4918 14.3559Z" fill="#815BC8"/>
        <path d="M57.1869 6.91267C59.5354 4.60203 63.343 4.60203 65.6915 6.91267C68.0399 9.22331 68.0399 12.9696 65.6915 15.2802L49.6344 31.0787C48.4602 32.234 46.914 32.8186 45.375 32.8186C44.6562 32.8186 43.9375 32.6926 43.2559 32.4406C42.5692 32.1868 41.9203 31.8051 41.3471 31.2955C41.2709 31.2278 41.1961 31.1579 41.1227 31.0857L32.6182 22.7181C31.8354 21.9479 31.8354 20.6991 32.6182 19.9289L38.2879 14.3505C39.0707 13.5803 40.3399 13.5803 41.1228 14.3505L43.9576 17.1397C44.7404 17.9099 46.0096 17.9099 46.7925 17.1397L57.1869 6.91267Z" fill="#815BC8"/>
    </g>
    <path d="M93.0625 8.09221V31.731H88.2949V8.09221H93.0625Z" fill="#815BC8"/>
    <path d="M108.228 12.6981C110.475 12.6981 112.291 13.4093 113.676 14.8316C115.061 16.2315 115.753 18.1957 115.753 20.7244V31.731H110.986V21.3679C110.986 19.8778 110.611 18.7376 109.862 17.9474C109.113 17.1346 108.091 16.7282 106.797 16.7282C105.48 16.7282 104.436 17.1346 103.664 17.9474C102.915 18.7376 102.54 19.8778 102.54 21.3679V31.731H97.7729V12.969H102.54V15.3058C103.176 14.493 103.982 13.8608 104.958 13.4093C105.957 12.9351 107.047 12.6981 108.228 12.6981Z" fill="#815BC8"/>
    <path d="M128.154 27.3623L132.921 12.969H137.995L131.014 31.731H125.225L118.278 12.969H123.386L128.154 27.3623Z" fill="#815BC8"/>
    <path d="M143.091 10.7338C142.251 10.7338 141.547 10.4742 140.98 9.95487C140.435 9.413 140.162 8.74696 140.162 7.95674C140.162 7.16652 140.435 6.51177 140.98 5.99248C141.547 5.45062 142.251 5.17969 143.091 5.17969C143.931 5.17969 144.623 5.45062 145.168 5.99248C145.736 6.51177 146.02 7.16652 146.02 7.95674C146.02 8.74696 145.736 9.413 145.168 9.95487C144.623 10.4742 143.931 10.7338 143.091 10.7338ZM145.441 12.969V31.731H140.673V12.969H145.441Z" fill="#815BC8"/>
    <path d="M154.919 15.7122C155.532 14.8091 156.372 14.0753 157.439 13.5108C158.528 12.9464 159.766 12.6642 161.151 12.6642C162.762 12.6642 164.215 13.0593 165.509 13.8495C166.826 14.6397 167.859 15.7686 168.608 17.2362C169.38 18.6811 169.766 20.3632 169.766 22.2823C169.766 24.2014 169.38 25.906 168.608 27.3961C167.859 28.8637 166.826 30.0038 165.509 30.8166C164.215 31.6294 162.762 32.0358 161.151 32.0358C159.743 32.0358 158.506 31.7649 157.439 31.223C156.394 30.6586 155.554 29.9361 154.919 29.0556V31.731H150.151V6.66982H154.919V15.7122ZM164.897 22.2823C164.897 21.1534 164.658 20.1826 164.181 19.3698C163.727 18.5344 163.114 17.9022 162.342 17.4732C161.593 17.0443 160.776 16.8298 159.891 16.8298C159.028 16.8298 158.211 17.0555 157.439 17.5071C156.689 17.9361 156.076 18.5682 155.6 19.4036C155.146 20.239 154.919 21.2211 154.919 22.35C154.919 23.4789 155.146 24.461 155.6 25.2964C156.076 26.1318 156.689 26.7752 157.439 27.2268C158.211 27.6558 159.028 27.8703 159.891 27.8703C160.776 27.8703 161.593 27.6445 162.342 27.1929C163.114 26.7414 163.727 26.0979 164.181 25.2625C164.658 24.4272 164.897 23.4337 164.897 22.2823Z" fill="#815BC8"/>
    <path d="M190.769 21.9436C190.769 22.6209 190.723 23.2305 190.632 23.7724H176.84C176.954 25.1271 177.431 26.1882 178.271 26.9559C179.111 27.7235 180.144 28.1073 181.37 28.1073C183.14 28.1073 184.4 27.351 185.15 25.8383H190.292C189.747 27.6445 188.703 29.1346 187.159 30.3086C185.615 31.4601 183.719 32.0358 181.472 32.0358C179.656 32.0358 178.021 31.6407 176.568 30.8505C175.138 30.0377 174.014 28.8975 173.197 27.43C172.402 25.9624 172.005 24.2691 172.005 22.35C172.005 20.4083 172.402 18.7037 173.197 17.2362C173.991 15.7686 175.104 14.6397 176.534 13.8495C177.964 13.0593 179.61 12.6642 181.472 12.6642C183.265 12.6642 184.866 13.048 186.273 13.8156C187.704 14.5833 188.805 15.6783 189.577 17.1007C190.371 18.5005 190.769 20.1148 190.769 21.9436ZM185.831 20.589C185.808 19.3698 185.365 18.3989 184.503 17.6764C183.64 16.9314 182.584 16.5588 181.336 16.5588C180.155 16.5588 179.156 16.9201 178.339 17.6426C177.544 18.3425 177.056 19.3246 176.875 20.589H185.831Z" fill="#815BC8"/>
    <path d="M171.858 21.8444C171.858 20.0417 172.248 18.4384 173.028 17.0344C173.808 15.613 174.892 14.5124 176.278 13.7324C177.682 12.935 179.268 12.5364 181.036 12.5364C183.203 12.5364 185.058 13.1084 186.6 14.2524C188.143 15.3964 189.174 16.9564 189.694 18.9324H184.806C184.442 18.1697 183.922 17.589 183.246 17.1904C182.588 16.7917 181.834 16.5924 180.984 16.5924C179.615 16.5924 178.506 17.069 177.656 18.0224C176.807 18.9757 176.382 20.2497 176.382 21.8444C176.382 23.439 176.807 24.713 177.656 25.6664C178.506 26.6197 179.615 27.0964 180.984 27.0964C181.834 27.0964 182.588 26.897 183.246 26.4984C183.922 26.0997 184.442 25.519 184.806 24.7564H189.694C189.174 26.7324 188.143 28.2924 186.6 29.4364C185.058 30.563 183.203 31.1264 181.036 31.1264C179.268 31.1264 177.682 30.7364 176.278 29.9564C174.892 29.159 173.808 28.0584 173.028 26.6544C172.248 25.2504 171.858 23.647 171.858 21.8444Z" fill="#38AECC"/>
    <path d="M213.087 12.7444V30.9964H208.641V20.0504L204.559 30.9964H200.971L196.863 20.0244V30.9964H192.417V12.7444H197.669L202.791 25.3804L207.861 12.7444H213.087Z" fill="#38AECC"/>
    <path d="M222.888 31.1784C221.554 31.1784 220.358 30.9617 219.3 30.5284C218.243 30.095 217.394 29.4537 216.752 28.6044C216.128 27.755 215.799 26.7324 215.764 25.5364H220.496C220.566 26.2124 220.8 26.7324 221.198 27.0964C221.597 27.443 222.117 27.6164 222.758 27.6164C223.417 27.6164 223.937 27.469 224.318 27.1744C224.7 26.8624 224.89 26.4377 224.89 25.9004C224.89 25.4497 224.734 25.077 224.422 24.7824C224.128 24.4877 223.755 24.245 223.304 24.0544C222.871 23.8637 222.247 23.647 221.432 23.4044C220.254 23.0404 219.292 22.6764 218.546 22.3124C217.801 21.9484 217.16 21.411 216.622 20.7004C216.085 19.9897 215.816 19.0624 215.816 17.9184C215.816 16.2197 216.432 14.8937 217.662 13.9404C218.893 12.9697 220.496 12.4844 222.472 12.4844C224.483 12.4844 226.104 12.9697 227.334 13.9404C228.565 14.8937 229.224 16.2284 229.31 17.9444H224.5C224.466 17.355 224.249 16.8957 223.85 16.5664C223.452 16.2197 222.94 16.0464 222.316 16.0464C221.779 16.0464 221.346 16.1937 221.016 16.4884C220.687 16.7657 220.522 17.173 220.522 17.7104C220.522 18.2997 220.8 18.759 221.354 19.0884C221.909 19.4177 222.776 19.773 223.954 20.1544C225.133 20.553 226.086 20.9344 226.814 21.2984C227.56 21.6624 228.201 22.191 228.738 22.8844C229.276 23.5777 229.544 24.4704 229.544 25.5624C229.544 26.6024 229.276 27.547 228.738 28.3964C228.218 29.2457 227.456 29.9217 226.45 30.4244C225.445 30.927 224.258 31.1784 222.888 31.1784Z" fill="#38AECC"/>
    <path fill-rule="evenodd" clip-rule="evenodd" d="M189.374 25.7564C188.797 27.2661 187.873 28.4927 186.6 29.4364C185.058 30.563 183.203 31.1264 181.036 31.1264C179.268 31.1264 177.682 30.7364 176.278 29.9564C174.892 29.159 173.808 28.0584 173.028 26.6544C172.248 25.2504 171.858 23.647 171.858 21.8444C171.858 20.0417 172.248 18.4384 173.028 17.0344C173.808 15.613 174.892 14.5124 176.278 13.7324C177.682 12.935 179.268 12.5364 181.036 12.5364C183.203 12.5364 185.058 13.1084 186.6 14.2524C187.873 15.196 188.797 16.4227 189.374 17.9324C189.497 18.2529 189.603 18.5863 189.694 18.9324H184.806C184.442 18.1697 183.922 17.589 183.246 17.1904C182.588 16.7917 181.834 16.5924 180.984 16.5924C179.615 16.5924 178.506 17.069 177.656 18.0224C176.807 18.9757 176.382 20.2497 176.382 21.8444C176.382 23.439 176.807 24.713 177.656 25.6664C178.506 26.6197 179.615 27.0964 180.984 27.0964C181.834 27.0964 182.588 26.897 183.246 26.4984C183.922 26.0997 184.442 25.519 184.806 24.7564H189.694C189.603 25.1025 189.497 25.4358 189.374 25.7564ZM190.992 19.9324H184.176L183.904 19.3631C183.619 18.7656 183.23 18.3415 182.738 18.0517L182.729 18.0459C182.242 17.7514 181.671 17.5924 180.984 17.5924C179.877 17.5924 179.048 17.964 178.403 18.6876C177.755 19.4154 177.382 20.4316 177.382 21.8444C177.382 23.2572 177.755 24.2734 178.403 25.0012C179.048 25.7247 179.877 26.0964 180.984 26.0964C181.671 26.0964 182.242 25.9374 182.729 25.6429L182.738 25.637C183.23 25.3472 183.619 24.9232 183.904 24.3256L184.176 23.7564H190.992L190.661 25.0109C190.088 27.1916 188.933 28.9512 187.196 30.2396L187.19 30.244C185.454 31.5121 183.385 32.1264 181.036 32.1264C179.116 32.1264 177.36 31.7012 175.793 30.8305L175.786 30.827L175.78 30.8233C174.235 29.935 173.022 28.7022 172.154 27.14C171.282 25.57 170.858 23.7958 170.858 21.8444C170.858 19.8939 171.282 18.1205 172.153 16.551C173.021 14.971 174.235 13.7347 175.786 12.8618C177.354 11.9717 179.113 11.5364 181.036 11.5364C183.389 11.5364 185.459 12.1612 187.196 13.4491C188.933 14.7375 190.088 16.4972 190.661 18.6779L190.992 19.9324ZM214.087 11.7444V31.9964H207.641V25.5938L205.253 31.9964H200.278L197.863 25.5472V31.9964H191.417V11.7444H198.343L202.786 22.7067L207.185 11.7444H214.087ZM202.791 25.3804L197.669 12.7444H192.417V30.9964H196.863V20.0244L200.971 30.9964H204.559L208.641 20.0504V30.9964H213.087V12.7444H207.861L202.791 25.3804ZM215.946 29.1965C215.186 28.1619 214.804 26.9359 214.765 25.5653L214.735 24.5364H221.399L221.491 25.4343C221.541 25.9231 221.693 26.19 221.864 26.3497C222.043 26.5021 222.312 26.6164 222.758 26.6164C223.264 26.6164 223.542 26.5058 223.696 26.3914C223.816 26.2895 223.89 26.1609 223.89 25.9004C223.89 25.7093 223.837 25.6048 223.736 25.5094L223.725 25.4996L223.715 25.4895C223.526 25.3003 223.267 25.1244 222.915 24.9753L222.908 24.9726L222.902 24.9697C222.525 24.804 221.948 24.6013 221.147 24.3628L221.137 24.3599C219.931 23.9872 218.916 23.6056 218.107 23.2109C217.211 22.773 216.45 22.13 215.825 21.3035C215.123 20.3753 214.816 19.2178 214.816 17.9184C214.816 15.9443 215.549 14.314 217.047 13.1524C218.495 12.0116 220.333 11.4844 222.472 11.4844C224.642 11.4844 226.499 12.0093 227.95 13.1524C229.435 14.304 230.209 15.9222 230.309 17.8939L230.362 18.9444H223.557L223.502 18.0031C223.481 17.6479 223.367 17.464 223.213 17.3373L223.204 17.3293L223.194 17.321C223.009 17.1603 222.745 17.0464 222.316 17.0464C221.969 17.0464 221.791 17.1367 221.683 17.2336L221.672 17.2436L221.66 17.2533C221.611 17.2947 221.522 17.3885 221.522 17.7104C221.522 17.9083 221.579 18.0588 221.865 18.2285C222.321 18.4995 223.102 18.8276 224.262 19.2029L224.275 19.207C225.475 19.6129 226.474 20.0104 227.257 20.4019C228.146 20.8369 228.904 21.4659 229.529 22.2718C230.232 23.1797 230.544 24.304 230.544 25.5624C230.544 26.7823 230.227 27.9115 229.587 28.925C228.957 29.9506 228.046 30.7447 226.897 31.3188C225.726 31.9044 224.379 32.1784 222.888 32.1784C221.445 32.1784 220.117 31.9439 218.921 31.4537C217.71 30.9575 216.712 30.2101 215.954 29.207L215.946 29.1965ZM228.738 28.3964C229.276 27.547 229.544 26.6024 229.544 25.5624C229.544 24.4704 229.276 23.5777 228.738 22.8844C228.201 22.191 227.56 21.6624 226.814 21.2984C226.086 20.9344 225.133 20.553 223.954 20.1544C222.776 19.773 221.909 19.4177 221.354 19.0884C220.8 18.759 220.522 18.2997 220.522 17.7104C220.522 17.173 220.687 16.7657 221.016 16.4884C221.346 16.1937 221.779 16.0464 222.316 16.0464C222.94 16.0464 223.452 16.2197 223.85 16.5664C224.249 16.8957 224.466 17.355 224.5 17.9444H229.31C229.293 17.5953 229.251 17.2619 229.186 16.9444C228.932 15.7011 228.315 14.6998 227.334 13.9404C226.104 12.9697 224.483 12.4844 222.472 12.4844C220.496 12.4844 218.893 12.9697 217.662 13.9404C216.432 14.8937 215.816 16.2197 215.816 17.9184C215.816 19.0624 216.085 19.9897 216.622 20.7004C217.16 21.411 217.801 21.9484 218.546 22.3124C219.292 22.6764 220.254 23.0404 221.432 23.4044C222.247 23.647 222.871 23.8637 223.304 24.0544C223.755 24.245 224.128 24.4877 224.422 24.7824C224.734 25.077 224.89 25.4497 224.89 25.9004C224.89 26.4377 224.7 26.8624 224.318 27.1744C223.937 27.469 223.417 27.6164 222.758 27.6164C222.117 27.6164 221.597 27.443 221.198 27.0964C220.8 26.7324 220.566 26.2124 220.496 25.5364H215.764C215.774 25.8844 215.809 26.2177 215.869 26.5364C216.016 27.3128 216.31 28.0022 216.752 28.6044C217.394 29.4537 218.243 30.095 219.3 30.5284C220.358 30.9617 221.554 31.1784 222.888 31.1784C224.258 31.1784 225.445 30.927 226.45 30.4244C227.456 29.9217 228.218 29.2457 228.738 28.3964Z" fill="#FDFDFD"/>
    <defs>
        <clipPath id="clip0_747_852">
            <rect width="60.2274" height="27.6448" fill="white" transform="translate(7.22559 5.17969)"/>
        </clipPath>
    </defs>
</svg>
