<svg viewBox="0 0 24 24" fill="none" xmlns="http://www.w3.org/2000/svg">
    <mask id="path-1-inside-1_1603_12649" fill="white">
        <path fill-rule="evenodd" clip-rule="evenodd" d="M15.8278 21.2412C14.6143 21.7438 13.3135 22.0017 12 22C10.6865 22.0017 9.3857 21.7438 8.17222 21.2411C6.95875 20.7385 5.85656 20.001 4.92901 19.071C3.99902 18.1435 3.26151 17.0413 2.75885 15.8278C2.25619 14.6143 1.99831 13.3135 2.00001 12C1.99833 10.6865 2.25623 9.3857 2.75889 8.17222C3.26154 6.95875 3.99904 5.85656 4.92901 4.92901C5.85656 3.99904 6.95875 3.26154 8.17222 2.75889C9.3857 2.25623 10.6865 1.99833 12 2.00001C13.3135 1.99831 14.6143 2.25619 15.8278 2.75885C17.0413 3.26151 18.1435 3.99902 19.071 4.92901C20.001 5.85656 20.7385 6.95875 21.2411 8.17222C21.7438 9.3857 22.0017 10.6865 22 12C22.0017 13.3135 21.7438 14.6143 21.2412 15.8278C20.7385 17.0413 20.001 18.1435 19.071 19.071C18.1435 20.001 17.0413 20.7385 15.8278 21.2412ZM17.4914 9.07617C17.8096 8.69432 17.758 8.12681 17.3762 7.8086C16.9943 7.49039 16.4268 7.54199 16.1086 7.92383L12.9836 11.6738L10.4895 14.6667L7.4364 11.6136C7.08492 11.2621 6.51508 11.2621 6.1636 11.6136C5.81213 11.9651 5.81213 12.5349 6.1636 12.8864L9.9136 16.6364C10.0924 16.8152 10.3382 16.9105 10.5908 16.8991C10.8434 16.8876 11.0795 16.7704 11.2414 16.5762L14.3664 12.8262L17.4914 9.07617Z"/>
    </mask>
    <path fill-rule="evenodd" clip-rule="evenodd" d="M15.8278 21.2412C14.6143 21.7438 13.3135 22.0017 12 22C10.6865 22.0017 9.3857 21.7438 8.17222 21.2411C6.95875 20.7385 5.85656 20.001 4.92901 19.071C3.99902 18.1435 3.26151 17.0413 2.75885 15.8278C2.25619 14.6143 1.99831 13.3135 2.00001 12C1.99833 10.6865 2.25623 9.3857 2.75889 8.17222C3.26154 6.95875 3.99904 5.85656 4.92901 4.92901C5.85656 3.99904 6.95875 3.26154 8.17222 2.75889C9.3857 2.25623 10.6865 1.99833 12 2.00001C13.3135 1.99831 14.6143 2.25619 15.8278 2.75885C17.0413 3.26151 18.1435 3.99902 19.071 4.92901C20.001 5.85656 20.7385 6.95875 21.2411 8.17222C21.7438 9.3857 22.0017 10.6865 22 12C22.0017 13.3135 21.7438 14.6143 21.2412 15.8278C20.7385 17.0413 20.001 18.1435 19.071 19.071C18.1435 20.001 17.0413 20.7385 15.8278 21.2412ZM17.4914 9.07617C17.8096 8.69432 17.758 8.12681 17.3762 7.8086C16.9943 7.49039 16.4268 7.54199 16.1086 7.92383L12.9836 11.6738L10.4895 14.6667L7.4364 11.6136C7.08492 11.2621 6.51508 11.2621 6.1636 11.6136C5.81213 11.9651 5.81213 12.5349 6.1636 12.8864L9.9136 16.6364C10.0924 16.8152 10.3382 16.9105 10.5908 16.8991C10.8434 16.8876 11.0795 16.7704 11.2414 16.5762L14.3664 12.8262L17.4914 9.07617Z" fill="currentColor"/>
    <path d="M12 22L12.0016 20.8L11.9985 20.8L12 22ZM15.8278 21.2412L15.3686 20.1325L15.8278 21.2412ZM4.92901 19.071L5.77864 18.2236L5.77642 18.2214L4.92901 19.071ZM2.75885 15.8278L3.8675 15.3686H3.8675L2.75885 15.8278ZM2.00001 12L3.20001 12.0016L3.20001 11.9985L2.00001 12ZM2.75889 8.17222L1.65024 7.71299L1.65024 7.71299L2.75889 8.17222ZM4.92901 4.92901L5.77644 5.77864L5.77864 5.77643L4.92901 4.92901ZM8.17222 2.75889L7.71299 1.65024L7.71299 1.65024L8.17222 2.75889ZM12 2.00001L11.9985 3.20001L12.0016 3.20001L12 2.00001ZM15.8278 2.75885L15.3686 3.8675V3.8675L15.8278 2.75885ZM19.071 4.92901L18.2214 5.77642L18.2236 5.77864L19.071 4.92901ZM22 12L20.8 11.9985L20.8 12.0016L22 12ZM21.2412 15.8278L20.1325 15.3686L21.2412 15.8278ZM19.071 19.071L18.2236 18.2214L18.2214 18.2236L19.071 19.071ZM17.4914 9.07617L18.4133 9.84439L18.4133 9.84439L17.4914 9.07617ZM16.1086 7.92383L15.1867 7.15561V7.15561L16.1086 7.92383ZM12.9836 11.6738L13.9055 12.4421L12.9836 11.6738ZM10.4895 14.6667L9.64099 15.5153C9.8794 15.7537 10.2071 15.8808 10.5439 15.8655C10.8807 15.8502 11.1955 15.694 11.4114 15.4349L10.4895 14.6667ZM7.4364 11.6136L8.28492 10.7651L8.28492 10.7651L7.4364 11.6136ZM6.1636 11.6136L5.31508 10.7651L5.31508 10.7651L6.1636 11.6136ZM6.1636 12.8864L5.31507 13.7349L5.31508 13.7349L6.1636 12.8864ZM9.9136 16.6364L9.06508 17.4849L9.06508 17.4849L9.9136 16.6364ZM11.2414 16.5762L12.1633 17.3444L12.1633 17.3444L11.2414 16.5762ZM11.9985 23.2C13.47 23.2019 14.9275 22.913 16.287 22.3498L15.3686 20.1325C14.3012 20.5747 13.1569 20.8015 12.0016 20.8L11.9985 23.2ZM7.71299 22.3498C9.07254 22.9129 10.53 23.2019 12.0015 23.2L11.9985 20.8C10.8431 20.8015 9.69886 20.5746 8.63145 20.1325L7.71299 22.3498ZM4.07938 19.9184C5.11858 20.9603 6.35344 21.7866 7.71299 22.3498L8.63145 20.1325C7.56405 19.6903 6.59454 19.0416 5.77864 18.2236L4.07938 19.9184ZM1.6502 16.287C2.21337 17.6466 3.03966 18.8815 4.0816 19.9207L5.77642 18.2214C4.95838 17.4055 4.30965 16.436 3.8675 15.3686L1.6502 16.287ZM0.800009 11.9985C0.798103 13.47 1.08703 14.9275 1.6502 16.287L3.8675 15.3686C3.42535 14.3012 3.19851 13.1569 3.20001 12.0016L0.800009 11.9985ZM1.65024 7.71299C1.08708 9.07254 0.798133 10.53 0.800009 12.0015L3.20001 11.9985C3.19853 10.8431 3.42539 9.69886 3.86754 8.63145L1.65024 7.71299ZM4.08158 4.07938C3.03968 5.11859 2.2134 6.35344 1.65024 7.71299L3.86754 8.63145C4.30969 7.56405 4.95841 6.59454 5.77643 5.77864L4.08158 4.07938ZM7.71299 1.65024C6.35344 2.2134 5.11859 3.03968 4.07938 4.08158L5.77864 5.77643C6.59454 4.95841 7.56405 4.30969 8.63145 3.86754L7.71299 1.65024ZM12.0015 0.800009C10.53 0.798133 9.07254 1.08708 7.71299 1.65024L8.63145 3.86754C9.69886 3.42539 10.8431 3.19853 11.9985 3.20001L12.0015 0.800009ZM16.287 1.6502C14.9275 1.08703 13.47 0.798103 11.9985 0.800009L12.0016 3.20001C13.1569 3.19851 14.3012 3.42535 15.3686 3.8675L16.287 1.6502ZM19.9207 4.0816C18.8815 3.03966 17.6466 2.21337 16.287 1.6502L15.3686 3.8675C16.436 4.30965 17.4055 4.95838 18.2214 5.77642L19.9207 4.0816ZM22.3498 7.71299C21.7866 6.35344 20.9603 5.11858 19.9184 4.07938L18.2236 5.77864C19.0416 6.59454 19.6903 7.56405 20.1325 8.63145L22.3498 7.71299ZM23.2 12.0015C23.2019 10.53 22.9129 9.07254 22.3498 7.71299L20.1325 8.63145C20.5746 9.69886 20.8015 10.8431 20.8 11.9985L23.2 12.0015ZM22.3498 16.287C22.913 14.9275 23.2019 13.47 23.2 11.9985L20.8 12.0016C20.8015 13.1569 20.5747 14.3012 20.1325 15.3686L22.3498 16.287ZM19.9184 19.9207C20.9604 18.8815 21.7866 17.6466 22.3498 16.287L20.1325 15.3686C19.6904 16.436 19.0416 17.4055 18.2236 18.2214L19.9184 19.9207ZM16.287 22.3498C17.6466 21.7866 18.8815 20.9604 19.9207 19.9184L18.2214 18.2236C17.4055 19.0416 16.436 19.6904 15.3686 20.1325L16.287 22.3498ZM16.6079 8.73047C16.4807 8.6244 16.4635 8.43523 16.5695 8.30795L18.4133 9.84439C19.1557 8.95341 19.0354 7.62922 18.1444 6.88674L16.6079 8.73047ZM17.0305 8.69206C16.9244 8.81934 16.7352 8.83654 16.6079 8.73047L18.1444 6.88674C17.2534 6.14425 15.9292 6.26463 15.1867 7.15561L17.0305 8.69206ZM13.9055 12.4421L17.0305 8.69206L15.1867 7.15561L12.0617 10.9056L13.9055 12.4421ZM11.4114 15.4349L13.9055 12.4421L12.0617 10.9056L9.56766 13.8985L11.4114 15.4349ZM6.58787 12.4621L9.64099 15.5153L11.338 13.8182L8.28492 10.7651L6.58787 12.4621ZM7.01213 12.4621C6.89497 12.5793 6.70503 12.5793 6.58787 12.4621L8.28492 10.7651C7.46482 9.94498 6.13518 9.94498 5.31508 10.7651L7.01213 12.4621ZM7.01213 12.0379C7.12929 12.155 7.12929 12.345 7.01213 12.4621L5.31508 10.7651C4.49497 11.5852 4.49498 12.9148 5.31507 13.7349L7.01213 12.0379ZM10.7621 15.7879L7.01213 12.0379L5.31508 13.7349L9.06508 17.4849L10.7621 15.7879ZM10.5364 15.7003C10.6206 15.6965 10.7025 15.7283 10.7621 15.7879L9.06508 17.4849C9.48228 17.9021 10.0557 18.1246 10.6452 18.0978L10.5364 15.7003ZM10.3195 15.8079C10.3735 15.7432 10.4522 15.7041 10.5364 15.7003L10.6452 18.0978C11.2346 18.0711 11.7855 17.7977 12.1633 17.3444L10.3195 15.8079ZM13.4445 12.0579L10.3195 15.8079L12.1633 17.3444L15.2883 13.5944L13.4445 12.0579ZM16.5695 8.30794L13.4445 12.0579L15.2883 13.5944L18.4133 9.84439L16.5695 8.30794Z" fill="currentColor" mask="url(#path-1-inside-1_1603_12649)"/>
</svg>
